<svg xmlns="http://www.w3.org/2000/svg" viewBox="0 0 32 32">
  <defs>
    <linearGradient id="faviconGradient" x1="0%" y1="0%" x2="100%" y2="100%">
      <stop offset="0%" style="stop-color:#3B82F6;stop-opacity:1" />
      <stop offset="100%" style="stop-color:#6366F1;stop-opacity:1" />
    </linearGradient>
  </defs>
  
  <!-- Main chat bubble -->
  <path d="M6 3 C6 1.5, 7.5 0, 9 0 L23 0 C24.5 0, 26 1.5, 26 3 L26 13 C26 14.5, 24.5 16, 23 16 L13 16 L11 18 L9 16 L6 16 C4.5 16, 3 14.5, 3 13 Z" 
        fill="url(#faviconGradient)"/>
  
  <!-- Platform layers inside chat bubble -->
  <rect x="5" y="4" width="16" height="2" rx="1" fill="white" opacity="0.9"/>
  <rect x="5" y="7" width="14" height="2" rx="1" fill="white" opacity="0.8"/>
  <rect x="5" y="10" width="12" height="2" rx="1" fill="white" opacity="0.7"/>
  
  <!-- AI indicator -->
  <circle cx="26" cy="26" r="4" fill="url(#faviconGradient)" opacity="0.9"/>
  <text x="26" y="28" text-anchor="middle" font-family="Arial, sans-serif" font-size="6" font-weight="bold" fill="white">AI</text>
</svg> 