<svg xmlns="http://www.w3.org/2000/svg" viewBox="0 0 300 225">
  <defs>
    <linearGradient id="cloudGradient" x1="0%" y1="0%" x2="100%" y2="100%">
      <stop offset="0%" style="stop-color:#3B82F6;stop-opacity:1" />
      <stop offset="100%" style="stop-color:#6366F1;stop-opacity:1" />
    </linearGradient>
    <linearGradient id="textGradient" x1="0%" y1="0%" x2="100%" y2="100%">
      <stop offset="0%" style="stop-color:#1E40AF;stop-opacity:1" />
      <stop offset="100%" style="stop-color:#3B82F6;stop-opacity:1" />
    </linearGradient>
    <filter id="shadow" x="-20%" y="-20%" width="140%" height="140%">
      <feDropShadow dx="0" dy="4" stdDeviation="6" flood-color="#1E40AF" flood-opacity="0.3"/>
    </filter>
  </defs>
  
  <!-- Cloud base -->
  <ellipse cx="150" cy="90" rx="67" ry="37" fill="url(#cloudGradient)" filter="url(#shadow)"/>
  
  <!-- Cloud top parts -->
  <circle cx="105" cy="75" r="22" fill="url(#cloudGradient)"/>
  <circle cx="135" cy="67" r="27" fill="url(#cloudGradient)"/>
  <circle cx="165" cy="75" r="24" fill="url(#cloudGradient)"/>
  <circle cx="195" cy="82" r="18" fill="url(#cloudGradient)"/>
  
  <!-- Speech bubble tail -->
  <path d="M127 127 L112 142 L127 157 L142 142 Z" fill="url(#cloudGradient)"/>
  
  <!-- Terminal prompt inside cloud -->
  <g transform="translate(150, 90)">
    <!-- Terminal window -->
    <rect x="-45" y="-22" width="90" height="45" rx="6" fill="white" opacity="0.95"/>
    
    <!-- Terminal header -->
    <rect x="-45" y="-22" width="90" height="12" rx="6" fill="#374151"/>
    <circle cx="-30" cy="-16" r="3" fill="#EF4444"/>
    <circle cx="-22" cy="-16" r="3" fill="#F59E0B"/>
    <circle cx="-15" cy="-16" r="3" fill="#10B981"/>
    
    <!-- Terminal prompt -->
    <text x="-37" y="0" font-family="monospace" font-size="15" fill="#374151">$</text>
    <text x="-30" y="0" font-family="monospace" font-size="15" fill="#3B82F6">nubo</text>
    
    <!-- Waveform lines -->
    <line x1="-22" y1="12" x2="-15" y2="12" stroke="#10B981" stroke-width="3"/>
    <line x1="-12" y1="12" x2="-4" y2="12" stroke="#10B981" stroke-width="3"/>
    <line x1="-1" y1="12" x2="6" y2="12" stroke="#10B981" stroke-width="3"/>
    <line x1="9" y1="12" x2="16" y2="12" stroke="#10B981" stroke-width="3"/>
    <line x1="19" y1="12" x2="27" y2="12" stroke="#10B981" stroke-width="3"/>
    <line x1="30" y1="12" x2="37" y2="12" stroke="#10B981" stroke-width="3"/>
  </g>
  
  <!-- AI indicator dots -->
  <circle cx="240" cy="60" r="4" fill="#10B981" opacity="0.8">
    <animate attributeName="opacity" values="0.8;0.3;0.8" dur="2s" repeatCount="indefinite"/>
  </circle>
  <circle cx="240" cy="75" r="3" fill="#10B981" opacity="0.6">
    <animate attributeName="opacity" values="0.6;0.2;0.6" dur="2s" repeatCount="indefinite" begin="0.5s"/>
  </circle>
  <circle cx="240" cy="87" r="2" fill="#10B981" opacity="0.4">
    <animate attributeName="opacity" values="0.4;0.1;0.4" dur="2s" repeatCount="indefinite" begin="1s"/>
  </circle>
  
  <!-- NUBO text -->
  <text x="150" y="195" text-anchor="middle" font-family="Arial, sans-serif" font-size="36" font-weight="bold" fill="url(#textGradient)" filter="url(#shadow)">NUBO</text>
</svg>